# xmcd
#
# Track frame offsets: 
#        150
#        8881
#        29320
#        50352
#        69446
#        101207
#        128116
#        153033
#        167927
#        197776
#        212830
#        236516
#        251208
#
# Disc length: 3598 seconds
#
# Revision: 1
# Processed by: cddbd v1.5.2PL0 Copyright (c) Steve Scherf et al.
# Submitted via: ExactAudioCopy v0.99pb4
#
DISCID=b20e0c0d
DTITLE=Sacred Spirit - Volume 2: Culture Clash
DYEAR=1997
DGENRE=Ethnic
TTITLE0=Intro
TTITLE1=Culture Clash
TTITLE2=Lay Down
TTITLE3=On The Road
TTITLE4=Legends
TTITLE5=I. No More Cotton II. Interlude "To Be A Slave"
TTITLE6=The Sun Won't Walk No More
TTITLE7=Black Progress
TTITLE8=Roots
TTITLE9=Babes In Juke House
TTITLE10=I. Brownsville, Tennesse (Instrumental) II. Interlude "To Be 
TTITLE10=A Slave" N2
TTITLE11=Slow And Easy
TTITLE12=Sonnet XVIII
EXTD=
EXTT0=
EXTT1=
EXTT2=
EXTT3=
EXTT4=
EXTT5=
EXTT6=
EXTT7=
EXTT8=
EXTT9=
EXTT10=
EXTT11=
EXTT12=
PLAYORDER=
